# xmcd
#
# Track frame offsets: 
#        150
#        28310
#        56027
#        79880
#        109042
#        129312
#        154935
#        183440
#        209515
#        242667
#
# Disc length: 3310 seconds
#
# Revision: 0
# Processed by: cddbd v1.5.2PL0 Copyright (c) Steve Scherf et al.
# Submitted via: ExactAudioCopyFreeDBPlugin 1.0
#
DISCID=8a0cec0a
DTITLE=Joseph Spence - Complete Folkways Recordings
DYEAR=1958
DGENRE=Blues
TTITLE0=Coming in on a Wing and a Prayer
TTITLE1=There Will Be a Happy Meeting in Glory
TTITLE2=Brownskin Gal
TTITLE3=I'm Going to Live That Life
TTITLE4=Face to Face That I Shall Know Him
TTITLE5=Jump in the Line
TTITLE6=Bimini Gal
TTITLE7=The Lord Is My Shepherd
TTITLE8=(Glory Glory) When I Lay My Burden Down (Glory Glory)
TTITLE9=Unknown Title
EXTD=Info URL: http://www.amazon.com/gp/product/B000001DJ8
EXTT0=
EXTT1=
EXTT2=
EXTT3=
EXTT4=
EXTT5=
EXTT6=
EXTT7=
EXTT8=
EXTT9=
PLAYORDER=
